<?xml version="1.0" encoding="UTF-8" standalone="no"?>
<!DOCTYPE svg PUBLIC "-//W3C//DTD SVG 1.1//EN"
 "http://www.w3.org/Graphics/SVG/1.1/DTD/svg11.dtd">
<!-- Generated by graphviz version 2.38.0 (20140413.2041)
 -->
<!-- Title: G Pages: 1 -->
<svg width="773pt" height="1048pt"
 viewBox="0.00 0.00 773.28 1048.00" xmlns="http://www.w3.org/2000/svg" xmlns:xlink="http://www.w3.org/1999/xlink">
<g id="graph0" class="graph" transform="scale(1 1) rotate(0) translate(4 1044)">
<title>G</title>
<polygon fill="white" stroke="none" points="-4,4 -4,-1044 769.278,-1044 769.278,4 -4,4"/>
<g id="clust1" class="cluster"><title>cluster_Global</title>
<path fill="none" stroke="gray" d="M202.385,-44C202.385,-44 745.278,-44 745.278,-44 751.278,-44 757.278,-50 757.278,-56 757.278,-56 757.278,-1020 757.278,-1020 757.278,-1026 751.278,-1032 745.278,-1032 745.278,-1032 202.385,-1032 202.385,-1032 196.385,-1032 190.385,-1026 190.385,-1020 190.385,-1020 190.385,-56 190.385,-56 190.385,-50 196.385,-44 202.385,-44"/>
<text text-anchor="middle" x="473.831" y="-1019.2" font-family="Times,serif" font-size="11.00" fill="gray">Global</text>
</g>
<g id="clust2" class="cluster"><title>cluster_\Fubber</title>
<path fill="none" stroke="gray" d="M210.385,-52C210.385,-52 737.278,-52 737.278,-52 743.278,-52 749.278,-58 749.278,-64 749.278,-64 749.278,-992 749.278,-992 749.278,-998 743.278,-1004 737.278,-1004 737.278,-1004 210.385,-1004 210.385,-1004 204.385,-1004 198.385,-998 198.385,-992 198.385,-992 198.385,-64 198.385,-64 198.385,-58 204.385,-52 210.385,-52"/>
<text text-anchor="middle" x="473.831" y="-991.2" font-family="Times,serif" font-size="11.00" fill="gray">Fubber</text>
</g>
<g id="clust3" class="cluster"><title>cluster_\Fubber\Db</title>
<path fill="none" stroke="gray" d="M436.778,-482C436.778,-482 729.278,-482 729.278,-482 735.278,-482 741.278,-488 741.278,-494 741.278,-494 741.278,-812 741.278,-812 741.278,-818 735.278,-824 729.278,-824 729.278,-824 436.778,-824 436.778,-824 430.778,-824 424.778,-818 424.778,-812 424.778,-812 424.778,-494 424.778,-494 424.778,-488 430.778,-482 436.778,-482"/>
<text text-anchor="middle" x="583.028" y="-811.2" font-family="Times,serif" font-size="11.00" fill="gray">Db</text>
</g>
<g id="clust4" class="cluster"><title>cluster_\Fubber\Util</title>
<path fill="none" stroke="gray" d="M653.278,-294C653.278,-294 702.278,-294 702.278,-294 708.278,-294 714.278,-300 714.278,-306 714.278,-306 714.278,-462 714.278,-462 714.278,-468 708.278,-474 702.278,-474 702.278,-474 653.278,-474 653.278,-474 647.278,-474 641.278,-468 641.278,-462 641.278,-462 641.278,-306 641.278,-306 641.278,-300 647.278,-294 653.278,-294"/>
<text text-anchor="middle" x="677.778" y="-461.2" font-family="Times,serif" font-size="11.00" fill="gray">Util</text>
</g>
<g id="clust5" class="cluster"><title>cluster_\Fubber\Parsing</title>
<path fill="none" stroke="gray" d="M632.778,-214C632.778,-214 722.778,-214 722.778,-214 728.778,-214 734.778,-220 734.778,-226 734.778,-226 734.778,-274 734.778,-274 734.778,-280 728.778,-286 722.778,-286 722.778,-286 632.778,-286 632.778,-286 626.778,-286 620.778,-280 620.778,-274 620.778,-274 620.778,-226 620.778,-226 620.778,-220 626.778,-214 632.778,-214"/>
<text text-anchor="middle" x="677.778" y="-273.2" font-family="Times,serif" font-size="11.00" fill="gray">Parsing</text>
</g>
<!-- \\Fubber\\Db\\TableUnion -->
<g id="node1" class="node"><title>\\Fubber\\Db\\TableUnion</title>
<polygon fill="none" stroke="black" points="719.778,-580 635.778,-580 635.778,-544 719.778,-544 719.778,-580"/>
<text text-anchor="middle" x="677.778" y="-559.2" font-family="Courier,monospace" font-size="11.00">TableUnion</text>
</g>
<!-- \\Fubber\\Db\\TableSet -->
<g id="node2" class="node"><title>\\Fubber\\Db\\TableSet</title>
<polygon fill="none" stroke="black" points="506.778,-580 435.778,-580 435.778,-544 506.778,-544 506.778,-580"/>
<text text-anchor="middle" x="471.278" y="-559.2" font-family="Courier,monospace" font-size="11.00">TableSet</text>
</g>
<!-- \\Fubber\\Db\\TableUnion&#45;&gt;\\Fubber\\Db\\TableSet -->
<g id="edge1" class="edge"><title>\\Fubber\\Db\\TableUnion&#45;&gt;\\Fubber\\Db\\TableSet</title>
<path fill="none" stroke="black" d="M635.394,-562C600.978,-562 552.096,-562 516.829,-562"/>
<polygon fill="none" stroke="black" points="516.81,-558.5 506.81,-562 516.81,-565.5 516.81,-558.5"/>
</g>
<!-- \\IteratorAggregate -->
<g id="node21" class="node"><title>\\IteratorAggregate</title>
<ellipse fill="none" stroke="black" cx="244.885" cy="-18" rx="75.2868" ry="18"/>
<text text-anchor="middle" x="244.885" y="-14.3" font-family="Times,serif" font-size="14.00" fill="gray">\IteratorAggregate</text>
</g>
<!-- \\Fubber\\Db\\TableSet&#45;&gt;\\IteratorAggregate -->
<g id="edge2" class="edge"><title>\\Fubber\\Db\\TableSet&#45;&gt;\\IteratorAggregate</title>
<path fill="none" stroke="black" stroke-dasharray="1,5" d="M435.727,-558.18C420.19,-554.657 402.978,-547.908 392.278,-535 252.64,-366.556 455.655,-219.887 320.278,-48 316.58,-43.3042 312.03,-39.3397 307.019,-35.9932"/>
<polygon fill="none" stroke="black" points="308.631,-32.8825 298.218,-30.925 305.137,-38.9486 308.631,-32.8825"/>
</g>
<!-- \\Fubber\\Db\\Cache -->
<g id="node3" class="node"><title>\\Fubber\\Db\\Cache</title>
<polygon fill="none" stroke="black" points="704.778,-796 650.778,-796 650.778,-760 704.778,-760 704.778,-796"/>
<text text-anchor="middle" x="677.778" y="-775.2" font-family="Courier,monospace" font-size="11.00">Cache</text>
</g>
<!-- \\Fubber\\ICache -->
<g id="node19" class="node"><title>\\Fubber\\ICache</title>
<polygon fill="none" stroke="black" points="499.778,-976 442.778,-976 442.778,-940 499.778,-940 499.778,-976"/>
<text text-anchor="middle" x="471.278" y="-955.2" font-family="Courier,monospace" font-size="11.00">ICache</text>
</g>
<!-- \\Fubber\\Db\\Cache&#45;&gt;\\Fubber\\ICache -->
<g id="edge5" class="edge"><title>\\Fubber\\Db\\Cache&#45;&gt;\\Fubber\\ICache</title>
<path fill="none" stroke="black" stroke-dasharray="1,5" d="M666.468,-796.072C647.472,-827.821 603.939,-893.768 550.278,-931 538.269,-939.332 523.447,-945.311 509.96,-949.489"/>
<polygon fill="none" stroke="black" points="508.629,-946.229 499.975,-952.342 510.552,-952.96 508.629,-946.229"/>
</g>
<!-- \\Fubber\\Db\\EmptyTableSet -->
<g id="node4" class="node"><title>\\Fubber\\Db\\EmptyTableSet</title>
<polygon fill="none" stroke="black" points="729.778,-688 625.778,-688 625.778,-652 729.778,-652 729.778,-688"/>
<text text-anchor="middle" x="677.778" y="-667.2" font-family="Courier,monospace" font-size="11.00">EmptyTableSet</text>
</g>
<!-- \\Fubber\\Db\\EmptyTableSet&#45;&gt;\\Fubber\\Db\\TableSet -->
<g id="edge6" class="edge"><title>\\Fubber\\Db\\EmptyTableSet&#45;&gt;\\Fubber\\Db\\TableSet</title>
<path fill="none" stroke="black" d="M638.696,-651.955C632.676,-649.012 626.539,-645.958 620.778,-643 583.962,-624.099 542.679,-601.462 513.004,-584.93"/>
<polygon fill="none" stroke="black" points="514.622,-581.825 504.185,-580.006 511.21,-587.937 514.622,-581.825"/>
</g>
<!-- \\Fubber\\Db\\Exception -->
<g id="node5" class="node"><title>\\Fubber\\Db\\Exception</title>
<polygon fill="none" stroke="black" points="509.778,-769 432.778,-769 432.778,-733 509.778,-733 509.778,-769"/>
<text text-anchor="middle" x="471.278" y="-748.2" font-family="Courier,monospace" font-size="11.00">Exception</text>
</g>
<!-- \\Fubber\\Exception -->
<g id="node18" class="node"><title>\\Fubber\\Exception</title>
<polygon fill="none" stroke="black" points="283.385,-868 206.385,-868 206.385,-832 283.385,-832 283.385,-868"/>
<text text-anchor="middle" x="244.885" y="-847.2" font-family="Courier,monospace" font-size="11.00">Exception</text>
</g>
<!-- \\Fubber\\Db\\Exception&#45;&gt;\\Fubber\\Exception -->
<g id="edge8" class="edge"><title>\\Fubber\\Db\\Exception&#45;&gt;\\Fubber\\Exception</title>
<path fill="none" stroke="black" d="M432.454,-759.958C419.517,-763.47 405.085,-767.891 392.278,-773 354.491,-788.073 313.694,-810.044 284.791,-826.663"/>
<polygon fill="none" stroke="black" points="282.736,-823.809 275.843,-831.855 286.249,-829.863 282.736,-823.809"/>
</g>
<!-- \\Fubber\\Db\\Table -->
<g id="node6" class="node"><title>\\Fubber\\Db\\Table</title>
<polygon fill="none" stroke="black" points="719.778,-634 635.778,-634 635.778,-598 719.778,-598 719.778,-634"/>
<text text-anchor="start" x="643.778" y="-619.2" font-family="Courier,monospace" font-size="11.00">«abstract»</text>
<text text-anchor="start" x="660.778" y="-607.2" font-family="Courier,monospace" font-size="11.00">Table</text>
</g>
<!-- \\Fubber\\Db\\QueryException -->
<g id="node7" class="node"><title>\\Fubber\\Db\\QueryException</title>
<polygon fill="none" stroke="black" points="733.278,-742 622.278,-742 622.278,-706 733.278,-706 733.278,-742"/>
<text text-anchor="middle" x="677.778" y="-721.2" font-family="Courier,monospace" font-size="11.00">QueryException</text>
</g>
<!-- \\Fubber\\Db\\QueryException&#45;&gt;\\Fubber\\Db\\Exception -->
<g id="edge9" class="edge"><title>\\Fubber\\Db\\QueryException&#45;&gt;\\Fubber\\Db\\Exception</title>
<path fill="none" stroke="black" d="M622.244,-731.2C590.353,-735.411 550.479,-740.675 519.865,-744.717"/>
<polygon fill="none" stroke="black" points="519.319,-741.259 509.863,-746.038 520.235,-748.199 519.319,-741.259"/>
</g>
<!-- \\Fubber\\Db\\PdoDb -->
<g id="node8" class="node"><title>\\Fubber\\Db\\PdoDb</title>
<polygon fill="none" stroke="black" points="704.778,-526 650.778,-526 650.778,-490 704.778,-490 704.778,-526"/>
<text text-anchor="middle" x="677.778" y="-505.2" font-family="Courier,monospace" font-size="11.00">PdoDb</text>
</g>
<!-- \\Fubber\\Db\\IDb -->
<g id="node9" class="node"><title>\\Fubber\\Db\\IDb</title>
<polygon fill="none" stroke="black" points="498.278,-526 444.278,-526 444.278,-490 498.278,-490 498.278,-526"/>
<text text-anchor="middle" x="471.278" y="-505.2" font-family="Courier,monospace" font-size="11.00">IDb</text>
</g>
<!-- \\Fubber\\Db\\PdoDb&#45;&gt;\\Fubber\\Db\\IDb -->
<g id="edge10" class="edge"><title>\\Fubber\\Db\\PdoDb&#45;&gt;\\Fubber\\Db\\IDb</title>
<path fill="none" stroke="black" stroke-dasharray="1,5" d="M650.462,-508C614.34,-508 549.252,-508 508.537,-508"/>
<polygon fill="none" stroke="black" points="508.493,-504.5 498.493,-508 508.493,-511.5 508.493,-504.5"/>
</g>
<!-- \\Fubber\\Util\\UUID -->
<g id="node10" class="node"><title>\\Fubber\\Util\\UUID</title>
<polygon fill="none" stroke="black" points="704.778,-446 650.778,-446 650.778,-410 704.778,-410 704.778,-446"/>
<text text-anchor="middle" x="677.778" y="-425.2" font-family="Courier,monospace" font-size="11.00">UUID</text>
</g>
<!-- \\Fubber\\Util\\Url -->
<g id="node11" class="node"><title>\\Fubber\\Util\\Url</title>
<polygon fill="none" stroke="black" points="704.778,-392 650.778,-392 650.778,-356 704.778,-356 704.778,-392"/>
<text text-anchor="middle" x="677.778" y="-371.2" font-family="Courier,monospace" font-size="11.00">Url</text>
</g>
<!-- \\Fubber\\Util\\Errors -->
<g id="node12" class="node"><title>\\Fubber\\Util\\Errors</title>
<polygon fill="none" stroke="black" points="706.278,-338 649.278,-338 649.278,-302 706.278,-302 706.278,-338"/>
<text text-anchor="middle" x="677.778" y="-317.2" font-family="Courier,monospace" font-size="11.00">Errors</text>
</g>
<!-- \\Fubber\\Parsing\\StringParser -->
<g id="node13" class="node"><title>\\Fubber\\Parsing\\StringParser</title>
<polygon fill="none" stroke="black" points="726.778,-258 628.778,-258 628.778,-222 726.778,-222 726.778,-258"/>
<text text-anchor="middle" x="677.778" y="-237.2" font-family="Courier,monospace" font-size="11.00">StringParser</text>
</g>
<!-- \\Fubber\\Template -->
<g id="node14" class="node"><title>\\Fubber\\Template</title>
<polygon fill="none" stroke="black" points="713.278,-204 642.278,-204 642.278,-168 713.278,-168 713.278,-204"/>
<text text-anchor="middle" x="677.778" y="-183.2" font-family="Courier,monospace" font-size="11.00">Template</text>
</g>
<!-- \\Fubber\\ValidationException -->
<g id="node15" class="node"><title>\\Fubber\\ValidationException</title>
<polygon fill="none" stroke="black" points="543.778,-922 398.778,-922 398.778,-886 543.778,-886 543.778,-922"/>
<text text-anchor="middle" x="471.278" y="-901.2" font-family="Courier,monospace" font-size="11.00">ValidationException</text>
</g>
<!-- \\Fubber\\ValidationException&#45;&gt;\\Fubber\\Exception -->
<g id="edge3" class="edge"><title>\\Fubber\\ValidationException&#45;&gt;\\Fubber\\Exception</title>
<path fill="none" stroke="black" d="M398.662,-886.766C364.321,-878.502 324.12,-868.827 293.576,-861.477"/>
<polygon fill="none" stroke="black" points="294.152,-858.016 283.611,-859.079 292.515,-864.821 294.152,-858.016"/>
</g>
<!-- \\Fubber\\AccessDeniedException -->
<g id="node16" class="node"><title>\\Fubber\\AccessDeniedException</title>
<polygon fill="none" stroke="black" points="550.278,-868 392.278,-868 392.278,-832 550.278,-832 550.278,-868"/>
<text text-anchor="middle" x="471.278" y="-847.2" font-family="Courier,monospace" font-size="11.00">AccessDeniedException</text>
</g>
<!-- \\Fubber\\AccessDeniedException&#45;&gt;\\Fubber\\Exception -->
<g id="edge4" class="edge"><title>\\Fubber\\AccessDeniedException&#45;&gt;\\Fubber\\Exception</title>
<path fill="none" stroke="black" d="M392.111,-850C359.33,-850 322.268,-850 293.659,-850"/>
<polygon fill="none" stroke="black" points="293.525,-846.5 283.525,-850 293.525,-853.5 293.525,-846.5"/>
</g>
<!-- \\Fubber\\Config -->
<g id="node17" class="node"><title>\\Fubber\\Config</title>
<polygon fill="none" stroke="black" points="706.278,-150 649.278,-150 649.278,-114 706.278,-114 706.278,-150"/>
<text text-anchor="middle" x="677.778" y="-129.2" font-family="Courier,monospace" font-size="11.00">Config</text>
</g>
<!-- \\Exception -->
<g id="node22" class="node"><title>\\Exception</title>
<ellipse fill="none" stroke="black" cx="48.7457" cy="-850" rx="48.9926" ry="18"/>
<text text-anchor="middle" x="48.7457" y="-846.3" font-family="Times,serif" font-size="14.00" fill="gray">\Exception</text>
</g>
<!-- \\Fubber\\Exception&#45;&gt;\\Exception -->
<g id="edge7" class="edge"><title>\\Fubber\\Exception&#45;&gt;\\Exception</title>
<path fill="none" stroke="black" d="M205.992,-850C178.012,-850 139.425,-850 107.599,-850"/>
<polygon fill="none" stroke="black" points="107.526,-846.5 97.5259,-850 107.526,-853.5 107.526,-846.5"/>
</g>
<!-- \\Fubber\\LazyProp -->
<g id="node20" class="node"><title>\\Fubber\\LazyProp</title>
<polygon fill="none" stroke="black" points="713.278,-96 642.278,-96 642.278,-60 713.278,-60 713.278,-96"/>
<text text-anchor="middle" x="677.778" y="-75.2" font-family="Courier,monospace" font-size="11.00">LazyProp</text>
</g>
</g>
</svg>
